<svg width="72" height="72" viewBox="0 0 72 72" fill="none" xmlns="http://www.w3.org/2000/svg">
<path d="M36 68.9625C54.2047 68.9625 68.9625 54.2047 68.9625 36C68.9625 17.7953 54.2047 3.03748 36 3.03748C17.7953 3.03748 3.03751 17.7953 3.03751 36C3.03751 54.2047 17.7953 68.9625 36 68.9625Z" fill="white"/>
<path d="M69.6375 36C69.6375 35.2125 69.8625 23.7375 63.1125 16.3125C62.775 15.6375 61.425 12.9375 56.8125 9.675C53.775 7.3125 50.625 5.625 50.2875 5.4C49.95 5.175 44.325 2.25 37.575 2.25C37.0125 2.25 36.5625 2.25 36 2.3625C30.825 2.25 26.1 3.6 22.6125 5.175C19.0125 6.75 16.65 8.325 16.425 8.55C12.6 10.6875 5.2875 19.2375 4.725 23.85C2.36251 26.775 0.450006 40.1625 4.725 48.2625C7.7625 59.5125 19.0125 65.1375 19.9125 65.5875C20.475 65.925 26.55 69.75 34.0875 69.75H35.1C35.775 69.8625 36.3375 69.8625 37.0125 69.8625C45.1125 69.8625 57.2625 64.125 59.7375 59.625C66.7125 54.45 70.3125 41.4 69.6375 36V36ZM20.025 52.9875C16.7625 47.8125 14.9625 40.95 14.5125 39.375C15.525 37.8 20.5875 30.375 23.4 28.125C24.975 28.4625 31.8375 29.7 38.25 30.825C39.0375 32.9625 42.6375 42.075 43.65 45.675C42.525 47.025 38.1375 52.0875 33.8625 56.025C29.25 56.1375 21.4875 53.4375 20.025 52.9875V52.9875ZM60.525 16.425C60.525 16.875 60.4125 18.675 59.5125 20.8125C57.825 19.9125 53.55 18.1125 47.5875 17.775C46.6875 16.425 43.3125 11.8125 38.025 8.6625C38.7 7.2 39.7125 5.5125 40.3875 4.95C40.6125 4.95 40.8375 4.8375 41.2875 4.8375C44.1 4.8375 49.05 6.75 49.5 6.8625C49.95 7.0875 58.8375 11.8125 60.525 16.425ZM13.275 38.25C9.45 37.575 7.0875 36.45 6.4125 36C4.95 30.825 6.1875 25.2 6.3 24.4125C7.7625 21.9375 11.7 15.4125 14.4 14.175C17.1 13.6125 20.5875 14.2875 21.9375 14.625C21.825 16.425 21.6 21.4875 22.275 26.8875C19.35 29.3625 14.5125 36.45 13.275 38.25ZM35.6625 3.9375C36.5625 4.05 37.8 4.1625 38.7 4.5C37.8 5.625 36.9 7.3125 36.5625 8.2125C34.7625 8.55 28.125 9.7875 22.8375 13.1625C21.825 12.9375 18.5625 12.15 15.525 12.375C16.3125 10.9125 17.4375 9.9 17.55 9.7875C17.8875 9.45 25.875 3.825 35.6625 3.9375V3.9375ZM57.15 46.8C55.8 46.8 50.7375 46.4625 45.225 45.1125C44.2125 41.4 40.6125 32.2875 39.825 30.15C43.3125 25.2 46.6875 20.5875 47.5875 19.2375C54 19.6875 58.5 22.05 59.4 22.5C63.1125 28.4625 63.9 34.5375 64.0125 35.55C61.9875 41.7375 58.1625 45.9 57.15 46.8ZM4.1625 32.0625C4.275 33.525 4.5 34.9875 4.95 36.45C4.6125 37.4625 4.275 38.475 4.1625 39.4875C3.825 36.9 3.825 34.3125 4.1625 32.0625ZM20.8125 64.125L20.3625 64.8L20.8125 64.125C18 62.775 15.8625 59.625 14.9625 58.3875C16.65 56.7 18.7875 55.125 19.575 54.5625C21.375 55.2375 28.9125 57.7125 33.75 57.7125C34.5375 58.8375 37.2375 62.2125 40.5 64.9125C38.475 66.9375 35.55 67.8375 34.9875 68.0625C27.3375 68.2875 20.8125 64.125 20.8125 64.125V64.125ZM39.15 67.95C40.1625 67.3875 41.2875 66.6 42.1875 65.5875C43.65 65.3625 49.95 64.35 55.575 60.1875C55.9125 60.1875 56.5875 60.3 57.2625 60.3C53.775 63.5625 45.45 67.275 39.15 67.95ZM56.475 58.5C58.5 53.2125 58.3875 49.1625 58.275 47.925C59.4 46.8 63.225 42.75 65.3625 36.5625C66.4875 36.7875 67.275 37.0125 67.6125 37.2375C67.725 37.6875 67.95 38.7 67.8375 40.275C66.9375 45.9 64.0125 54.45 58.725 58.1625C58.1625 58.5 57.2625 58.6125 56.475 58.5Z" fill="#4A4E51"/>
</svg>
