<svg width="20" height="20" viewBox="0 0 20 20" fill="none" xmlns="http://www.w3.org/2000/svg">
<path d="M6.15384 7.33334C6.35786 7.33334 6.55351 7.40357 6.69777 7.5286C6.84203 7.65362 6.92307 7.82319 6.92307 8V16C6.92307 16.1768 6.84203 16.3464 6.69777 16.4714C6.55351 16.5964 6.35786 16.6667 6.15384 16.6667C5.94983 16.6667 5.75417 16.5964 5.60992 16.4714C5.46566 16.3464 5.38461 16.1768 5.38461 16V8C5.38461 7.82319 5.46566 7.65362 5.60992 7.5286C5.75417 7.40357 5.94983 7.33334 6.15384 7.33334V7.33334ZM10 7.33334C10.204 7.33334 10.3997 7.40357 10.5439 7.5286C10.6882 7.65362 10.7692 7.82319 10.7692 8V16C10.7692 16.1768 10.6882 16.3464 10.5439 16.4714C10.3997 16.5964 10.204 16.6667 10 16.6667C9.79598 16.6667 9.60033 16.5964 9.45607 16.4714C9.31181 16.3464 9.23077 16.1768 9.23077 16V8C9.23077 7.82319 9.31181 7.65362 9.45607 7.5286C9.60033 7.40357 9.79598 7.33334 10 7.33334V7.33334ZM14.6154 8C14.6154 7.82319 14.5343 7.65362 14.3901 7.5286C14.2458 7.40357 14.0502 7.33334 13.8462 7.33334C13.6421 7.33334 13.4465 7.40357 13.3022 7.5286C13.158 7.65362 13.0769 7.82319 13.0769 8V16C13.0769 16.1768 13.158 16.3464 13.3022 16.4714C13.4465 16.5964 13.6421 16.6667 13.8462 16.6667C14.0502 16.6667 14.2458 16.5964 14.3901 16.4714C14.5343 16.3464 14.6154 16.1768 14.6154 16V8Z" fill="#FF4545"/>
<path fill-rule="evenodd" clip-rule="evenodd" d="M20 4C20 4.35362 19.8379 4.69276 19.5494 4.94281C19.2609 5.19286 18.8696 5.33333 18.4615 5.33333H17.6923V17.3333C17.6923 18.0406 17.3681 18.7189 16.7911 19.219C16.2141 19.719 15.4314 20 14.6154 20H5.38462C4.56856 20 3.78594 19.719 3.2089 19.219C2.63187 18.7189 2.30769 18.0406 2.30769 17.3333V5.33333H1.53846C1.13044 5.33333 0.739122 5.19286 0.450605 4.94281C0.162087 4.69276 0 4.35362 0 4V2.66667C0 2.31304 0.162087 1.97391 0.450605 1.72386C0.739122 1.47381 1.13044 1.33333 1.53846 1.33333H6.92308C6.92308 0.979711 7.08516 0.640573 7.37368 0.390524C7.6622 0.140476 8.05351 0 8.46154 0L11.5385 0C11.9465 0 12.3378 0.140476 12.6263 0.390524C12.9148 0.640573 13.0769 0.979711 13.0769 1.33333H18.4615C18.8696 1.33333 19.2609 1.47381 19.5494 1.72386C19.8379 1.97391 20 2.31304 20 2.66667V4ZM4.02769 5.33333L3.84615 5.412V17.3333C3.84615 17.687 4.00824 18.0261 4.29676 18.2761C4.58528 18.5262 4.97659 18.6667 5.38462 18.6667H14.6154C15.0234 18.6667 15.4147 18.5262 15.7032 18.2761C15.9918 18.0261 16.1538 17.687 16.1538 17.3333V5.412L15.9723 5.33333H4.02769ZM1.53846 4V2.66667H18.4615V4H1.53846Z" fill="#FF4545"/>
</svg>
